<svg xmlns="http://www.w3.org/2000/svg" xmlns:xlink="http://www.w3.org/1999/xlink" width="38px" height="38px" viewBox="0 0 38 38" version="1.1">
    <!-- Generator: Sketch 50.2 (55047) - http://www.bohemiancoding.com/sketch -->
    <title>Group 5</title>
    <desc>Created with Sketch.</desc>
    <defs/>
    <g id="Page-1" stroke="none" stroke-width="1" fill="none" fill-rule="evenodd">
        <g id="Video&amp;call-Interface" transform="translate(-186.000000, -295.000000)">
            <g id="Group-5" transform="translate(187.000000, 296.000000)">
                <circle id="Oval-6-Copy-3" stroke="#fff" stroke-width="2" cx="18" cy="18" r="18" fill="#969696"/>
                <g id="noun_428859_cc-copy-3" transform="translate(9.000000, 12.000000)" fill="#000000" fill-rule="nonzero">
                    <path d="M17.0008619,8.64983184 C17.6299348,7.8500993 18,6.87282535 18,5.81633448 C18,3.11678933 15.5847383,0.928571429 12.6049191,0.928571429 C12.3735337,0.928571429 12.1459323,0.943300201 11.922304,0.968976034 C13.3136431,2.14687976 14.1877234,3.83630977 14.1877234,5.71084462 C14.1877234,7.68290783 13.2199916,9.44976342 11.7,10.632046 C11.9947656,10.6772275 12.2965314,10.7027043 12.6054867,10.7027043 C13.2146941,10.7027043 13.994177,10.5223763 13.994177,10.5223763 C14.1877234,10.477991 14.479651,10.536707 14.6438722,10.653343 L15.2035106,11.0510198 L16.5356317,11.9972439 C16.7539626,12.1522941 16.8943452,12.0563581 16.8470465,11.7834777 L16.5560647,10.1051938 C16.5560647,10.1051938 16.5237124,9.91869569 16.4841707,9.69199201 C16.4450074,9.46449219 16.5702544,9.12374005 16.7634223,8.93465446 C16.7626655,8.93465446 16.8241539,8.87414707 17.0008619,8.64983184 Z" id="Shape" fill="#fff"/>
                    <path d="M13.5,5.70240405 C13.5,2.55234569 10.4773121,0 6.75,0 C3.02145786,0 0,2.55234569 0,5.70220293 C0,6.93403 0.462915718,8.07475215 1.24995444,9.00812512 C1.47075171,9.26977525 1.54865604,9.33936091 1.54865604,9.33936091 C1.78933941,9.56038588 1.94617312,9.95879395 1.89697039,10.2236619 C1.84776765,10.488731 1.80738041,10.7059348 1.80738041,10.7059348 L1.44348519,12.6635845 C1.38382688,12.9825523 1.55931663,13.0943721 1.83259681,12.9133689 L3.49954442,11.8088474 L4.19904328,11.3446748 C4.4046697,11.2091236 4.77,11.1403424 5.01211845,11.1922299 C5.01211845,11.1922299 5.98797267,11.4031992 6.75,11.4031992 C10.4771071,11.4036014 13.5,8.85025014 13.5,5.70240405 Z" id="Shape" fill="#fff"/>
                </g>
            </g>
        </g>
    </g>
</svg>
