<svg xmlns="http://www.w3.org/2000/svg" xmlns:xlink="http://www.w3.org/1999/xlink" width="38px" height="38px" viewBox="0 0 38 38" version="1.1">
    <!-- Generator: Sketch 50.2 (55047) - http://www.bohemiancoding.com/sketch -->
    <title>noun_1456244_cc copy 8</title>
    <desc>Created with Sketch.</desc>
    <defs/>
    <g id="Page-1" stroke="none" stroke-width="1" fill="none" fill-rule="evenodd">
        <g id="Video&amp;call-Interface" transform="translate(-428.000000, -2362.000000)">
            <g id="Group-4" transform="translate(93.000000, 1733.000000)">
                <g id="noun_1456244_cc-copy-8" transform="translate(336.000000, 630.000000)">
                    <circle id="Oval-6" stroke="#fff" stroke-width="2" cx="18" cy="18" r="18" fill="#969696"/>
                    <path d="M21.2997416,13.1241535 L21.2997416,11.9051919 C21.2997416,9.74841396 19.5985393,8 17.5,8 C15.4014607,8 13.7002584,9.74841396 13.7002584,11.9051919 L13.7002584,18.5191874 C13.6971045,19.1909585 13.8635971,19.8520773 14.1834625,20.4379233 L13.3927649,21.2505643 C12.8764043,20.4384847 12.6016259,19.4892933 12.6020672,18.5191874 L12.6020672,15.2009029 L11.2842377,15.2009029 L11.2842377,18.5417607 C11.2853739,19.8706266 11.6925604,21.1655668 12.4483204,22.2437923 L9,25.765237 L9.92248062,26.7133183 L13.3049096,23.2595937 C14.2842413,24.1759872 15.5236,24.745616 16.8410853,24.8848758 L16.8410853,26.6455982 L14.7764858,26.6455982 L14.7764858,28 L20.2235142,28 L20.2235142,26.6455982 L18.1589147,26.6455982 L18.1589147,24.8848758 C21.3154361,24.5390308 23.7112145,21.804261 23.7157623,18.5417607 L23.7157623,15.2009029 L22.3979328,15.2009029 L22.3979328,18.5417607 C22.3995917,20.5240014 21.2691897,22.3226995 19.510441,23.136344 C17.7516923,23.9499884 15.6920698,23.6270815 14.249354,22.3115124 L15.0400517,21.4988713 C16.1691278,22.4845665 17.7526639,22.7059734 19.0969158,22.0660941 C20.4411678,21.4262148 21.3010078,20.041733 21.2997416,18.5191874 L21.2997416,15.0428894 L26,10.234763 L25.0775194,9.28668172 L21.2997416,13.1241535 Z M15.0180879,18.5191874 L15.0180879,11.9051919 C15.0180879,10.4964294 16.1292778,9.35440181 17.5,9.35440181 C18.8707222,9.35440181 19.9819121,10.4964294 19.9819121,11.9051919 L19.9819121,14.4785553 L15.1718346,19.4221219 C15.0674808,19.1332863 15.0153756,18.8272795 15.0180879,18.5191874 Z M19.9819121,18.5191874 C19.9843805,19.4978433 19.4418242,20.3916679 18.5854933,20.8196926 C17.7291623,21.2477174 16.7100527,21.134469 15.9625323,20.5282167 L19.9819205,16.3972912 L19.9819121,18.5191874 Z" id="Shape" fill="#fff" fill-rule="nonzero"/>
                </g>
            </g>
        </g>
    </g>
</svg>
