<svg xmlns="http://www.w3.org/2000/svg" xmlns:xlink="http://www.w3.org/1999/xlink" width="38px" height="38px" viewBox="0 0 38 38" version="1.1">
    <!-- Generator: Sketch 50.2 (55047) - http://www.bohemiancoding.com/sketch -->
    <title>Group 6</title>
    <desc>Created with Sketch.</desc>
    <defs/>
    <g id="Page-1" stroke="none" stroke-width="1" fill="none" fill-rule="evenodd">
        <g id="Video&amp;call-Interface" transform="translate(-272.000000, -295.000000)">
            <g id="Group-6" transform="translate(273.000000, 296.000000)">
                <circle id="Oval-6-Copy-6" stroke="#fff" stroke-width="2" cx="18" cy="18" r="18" fill="#969696"/>
                <g id="noun_1730991_cc-copy-3" transform="translate(9.000000, 13.000000)" fill="#000000" fill-rule="nonzero">
                    <path d="M14,4.5 L14,1 C14,0.45 13.55,0 13,0 L1,0 C0.45,0 0,0.45 0,1 L0,11 C0,11.55 0.45,12 1,12 L13,12 C13.55,12 14,11.55 14,11 L14,7.5 L18,11.5 L18,0.5 L14,4.5 Z M12,10 L2,10 L2,2 L12,2 L12,10 Z" id="Shape" fill="#fff"/>
                </g>
            </g>
        </g>
    </g>
</svg>
